<svg x="0" y="0" version="1.1" xmlns="http://www.w3.org/2000/svg" xmlns:xlink="http://www.w3.org/1999/xlink" viewBox="0 0 48 48"><g fill="none" stroke="none" stroke-width="1" stroke-linecap="butt" stroke-linejoin="miter" stroke-miterlimit="10" stroke-dasharray="" stroke-dashoffset="0" font-family="sans-serif" font-weight="normal" font-size="12" text-anchor="start"><g><g><path d="M0,48l0,-48l48,0l0,48z" fill="none"></path><path d="M2.4,48c-1.32548,0 -2.4,-1.07452 -2.4,-2.4l0,-43.2c0,-1.32548 1.07452,-2.4 2.4,-2.4l43.2,0c1.32548,0 2.4,1.07452 2.4,2.4l0,43.2c0,1.32548 -1.07452,2.4 -2.4,2.4z" fill="#1abc9c"></path><g><path d="M39,28c0,8.395 -6.606,15 -15.001,15c-8.395,0 -14.999,-6.605 -14.999,-15c0,-8.395 13.479,-15.4 11.959,-23c3.041,0 18.041,10.841 18.041,23z" fill="#dd2c00"></path><path d="M33,32c0,-7.599 -9,-15 -9,-15c0,6.08 -9,8.921 -9,15c0,5.036 3.963,9 9,9c5.037,0 9,-3.964 9,-9z" fill="#ff5722"></path><path d="M18.999,35.406c0.001,-3.406 5.001,-5.355 5.001,-8.406c0,0 4.999,3.832 4.999,8.406c0,2.525 -2.237,4.574 -5,4.574c-2.763,0 -5.001,-2.048 -5,-4.574z" fill="#ffc107"></path></g><g><g><path d="M48,38c0,5.5 -4.5,10 -10,10c-5.5,0 -10,-4.5 -10,-10c0,-5.5 4.5,-10 10,-10c5.5,0 10,4.5 10,10" fill="#43a047"></path><path d="M42.5,33.4l-5.7,5.6l-2.7,-2.7l-2.1,2.2l4.8,4.8l7.8,-7.8z" fill="#dcedc8"></path></g><path d="M27.16571,38c0,-5.98361 4.85067,-10.83429 10.83429,-10.83429c5.98361,0 10.83429,4.85067 10.83429,10.83429c0,5.98361 -4.85067,10.83429 -10.83429,10.83429c-5.98361,0 -10.83429,-4.85067 -10.83429,-10.83429z" fill="#ff0000" opacity="0"></path></g></g></g></g></svg>